<?xml version="1.0" encoding="UTF-8"?>
<svg id="Layer_2" data-name="Layer 2" xmlns="http://www.w3.org/2000/svg" viewBox="0 0 506.84 357.21">
  <defs>
    <style>
      .cls-1 {
        fill: #eb3834;
      }

      .cls-2 {
        fill: #fff;
      }

      .cls-3 {
        fill: #973393;
      }
    </style>
  </defs>
  <g id="Layer_2-2" data-name="Layer 2">
    <polyline class="cls-1" points="33.66 141.28 55.38 117.57 45.72 185.95 39.96 189.7 33.48 141.92"/>
    <polygon class="cls-3" points="51.3 183.5 98.05 151.98 61.03 117.71 51.3 183.5"/>
    <polygon class="cls-1" points="61.32 111.1 101.85 147.41 95.23 75.62 61.32 111.1"/>
    <polygon class="cls-3" points="101.68 72.84 177.97 60.52 107.93 143.59 101.68 72.84"/>
    <polygon class="cls-1" points="183.71 64.68 111.56 148.32 192.46 148.42 183.71 64.68"/>
    <polygon class="cls-3" points="188.91 59.2 208.75 55.53 218.08 86.45 232.71 112.51 198.29 150.83 188.91 59.2"/>
    <polygon class="cls-1" points="308.75 70.39 323.06 18.98 257.73 0 308.75 70.39"/>
    <polygon class="cls-3" points="299.11 66.86 253.36 2.67 211.61 28.66 299.11 66.86"/>
    <polygon class="cls-1" points="293.52 71.14 208.86 33.11 221.31 70.63 293.52 71.14"/>
    <polygon class="cls-3" points="304.98 77.22 223 77.28 246.26 120.01 304.98 77.22"/>
    <polygon class="cls-1" points="295.22 91.19 251.47 123.6 270.82 140.19 295.22 91.19"/>
    <polygon class="cls-3" points="307.23 83.23 275.29 144.28 307.74 168.62 307.23 83.23"/>
    <polygon class="cls-1" points="314.46 103.58 314.55 139.6 358.96 150.59 314.46 103.58"/>
    <polygon class="cls-3" points="313.18 79.9 313.66 94.07 360.41 143.76 360.36 99.53 313.18 79.9"/>
    <polygon class="cls-3" points="314.14 71.69 365.69 56.01 326.29 27.61 314.14 71.69"/>
    <polygon class="cls-1" points="328.7 21.12 351.12 26.22 366.52 50.07 328.7 21.12"/>
    <polygon class="cls-1" points="318.62 77.28 373.94 60.25 419.71 136.98 364.5 94.02 318.62 77.28"/>
    <polygon class="cls-3" points="365.51 104.42 365.45 150.57 420.03 144.17 365.51 104.42"/>
    <path class="cls-3" d="m422.3,131.56c.34-.63,20.83-15.17,20.83-15.17l-13.81,25.76-7.03-10.6Z"/>
    <polygon class="cls-1" points="377.95 155.47 424.51 149.9 450.59 172.18 377.95 155.47"/>
    <path class="cls-1" d="m206.29,151.23c-.17-.81,30.26-31.06,30.26-31.06l16.58,17.25-46.85,13.81Z"/>
    <polygon class="cls-3" points="206.25 157.92 257.73 141.98 297.4 171.1 302.96 199.85 206.25 157.92"/>
    <polygon class="cls-1" points="206.84 164.76 298.62 204.29 252.73 246.42 206.84 164.76"/>
    <polygon class="cls-3" points="109.35 154.95 119.56 236.75 186.17 154.65 109.35 154.95"/>
    <path class="cls-1" d="m39.74,197.4c1.03-.25,63.19-40.48,63.19-40.48l11.26,85.56-8.37,10.79-66.09-55.88Z"/>
    <polygon class="cls-3" points="39.12 205.38 32.03 258.81 82.39 242.28 39.12 205.38"/>
    <polygon class="cls-3" points="29.3 159.24 31.09 174.19 16.73 234.82 10.99 232.1 29.3 159.24"/>
    <polygon class="cls-1" points="12.44 238.6 0 249.6 .46 277.21 15.28 257.73 12.44 238.6"/>
    <path class="cls-1" d="m32.09,263.73c2.98-1.24,54.99-17.31,54.99-17.31l13.54,10.49-29.44,37.79-39.09-30.96Z"/>
    <polygon class="cls-3" points="37.65 277.84 57.21 311.41 67.4 298.81 37.65 277.84"/>
    <polygon class="cls-1" points="30.31 278.38 14.65 344.83 54.62 318.58 30.31 278.38"/>
    <polygon class="cls-3" points="12.04 356.36 12.44 350.1 52.15 326.69 51.52 334.93 65.8 350.1 66.33 357.16 12.04 356.36"/>
    <polygon class="cls-1" points="90.34 357.03 143.06 357.2 142.33 348.48 125.53 334.45 124.91 328.27 90.34 351.31 90.34 357.03"/>
    <path class="cls-3" d="m90.25,344.98c.76-.71,35.35-24.07,35.35-24.07l8.84-36.02-43.18,19.72-1.01,40.37Z"/>
    <polygon class="cls-1" points="90.77 297.57 128.58 280.71 103.79 264.73 90.82 280.35 90.77 297.57"/>
    <polygon class="cls-3" points="115.22 265 150.56 257.77 137.03 278.54 115.22 265"/>
    <polygon class="cls-1" points="214.74 237.58 193.29 156.12 109.29 258.82 214.74 237.58"/>
    <path class="cls-3" d="m203.35,171.96l48.2,84.05,4.5,16.22s-24.31,50.27-24.22,49.02-18.82-62.96-18.82-62.96l7.54-23.53-17.2-62.8Z"/>
    <polygon class="cls-1" points="209.31 265.98 227.42 325.32 191.37 319.78 209.31 265.98"/>
    <path class="cls-3" d="m185.85,357.15c-.02-.47-.11-20.95-.11-20.95l4.45-9.43,36.46,4.29,1.08,8.26,11,11.86.58,6.03-53.45-.05Z"/>
    <polygon class="cls-3" points="264.78 345.32 297.65 320.9 259.93 262.74 264.78 345.32"/>
    <polygon class="cls-1" points="264.73 357.14 264.74 352.3 303.3 325.52 303.31 333.9 318.7 349.63 318.4 357.2 264.73 357.14"/>
    <polygon class="cls-1" points="302.93 316.66 303.38 251.74 262.44 254.41 302.93 316.66"/>
    <polygon class="cls-3" points="258.9 249.03 303.56 208.16 302.77 246 258.9 249.03"/>
    <circle class="cls-2" cx="363.31" cy="81.06" r="13.15"/>
    <g>
      <polygon class="cls-3" points="435.26 153.43 456.62 171.95 474.13 160.68 435.26 153.43"/>
      <polygon class="cls-1" points="429.81 146.42 458.97 132.47 476.75 155.54 429.81 146.42"/>
      <polygon class="cls-3" points="463.22 129.58 481.79 153 501.61 125.41 463.22 129.58"/>
      <polygon class="cls-1" points="465.76 124.49 500.67 120.22 479.4 103.92 465.76 124.49"/>
      <polygon class="cls-3" points="483.02 99.55 506.84 85.05 504.89 117.23 483.02 99.55"/>
      <polygon class="cls-1" points="481.67 94.52 485.89 54.95 505.11 79.87 481.67 94.52"/>
      <polygon class="cls-3" points="465.07 70.35 480.3 59.28 478.21 76.57 465.07 70.35"/>
      <polygon class="cls-1" points="458.33 68.49 456.7 44.1 480.45 52.27 458.33 68.49"/>
    </g>
  </g>
</svg>