<?xml version="1.0" encoding="utf-8"?>
<!-- Generator: Adobe Illustrator 27.6.1, SVG Export Plug-In . SVG Version: 6.00 Build 0)  -->
<svg version="1.1" id="Layer_1" xmlns="http://www.w3.org/2000/svg" xmlns:xlink="http://www.w3.org/1999/xlink" x="0px" y="0px"
	 viewBox="0 0 1111 1111" style="enable-background:new 0 0 1111 1111;" xml:space="preserve">
<style type="text/css">
	.st0{fill:#EB3834;}
	.st1{fill:#973393;}
</style>
<g>
	<polyline class="st0" points="83.2,643.4 129.8,592.6 109.1,739.2 96.7,747.2 82.8,644.8 	"/>
	<polygon class="st1" points="121,733.9 221.3,666.4 141.9,592.9 	"/>
	<polygon class="st0" points="142.5,578.7 229.4,656.6 215.3,502.6 	"/>
	<polygon class="st1" points="229.1,496.6 392.7,470.2 242.5,648.4 	"/>
	<polygon class="st0" points="405,479.1 250.3,658.5 423.8,658.7 	"/>
	<polygon class="st1" points="416.2,467.4 458.7,459.5 478.7,525.8 510.1,581.7 436.3,663.9 	"/>
	<polygon class="st0" points="673.2,491.4 703.9,381.1 563.8,340.4 	"/>
	<polygon class="st1" points="652.5,483.8 554.4,346.1 464.8,401.9 	"/>
	<polygon class="st0" points="640.5,493 459,411.4 485.7,491.9 	"/>
	<polygon class="st1" points="665.1,506 489.3,506.1 539.2,597.8 	"/>
	<polygon class="st0" points="644.2,536 550.3,605.5 591.8,641.1 	"/>
	<polygon class="st1" points="669.9,518.9 601.4,649.8 671,702.1 	"/>
	<polygon class="st0" points="685.4,562.5 685.6,639.8 780.8,663.4 	"/>
	<polygon class="st1" points="682.7,511.8 683.7,542.2 784,648.7 783.9,553.9 	"/>
	<polygon class="st1" points="684.7,494.2 795.3,460.5 710.8,399.6 	"/>
	<polygon class="st0" points="716,385.7 764,396.7 797.1,447.8 	"/>
	<polygon class="st0" points="694.3,506.1 813,469.6 911.1,634.2 792.7,542.1 	"/>
	<polygon class="st1" points="794.9,564.4 794.8,663.3 911.8,649.6 	"/>
	<path class="st1" d="M916.7,622.6c0.7-1.3,44.7-32.5,44.7-32.5l-29.6,55.3L916.7,622.6z"/>
	<polygon class="st0" points="821.6,673.8 921.4,661.9 977.4,709.7 	"/>
	<path class="st0" d="M453.4,664.8c-0.4-1.7,64.9-66.6,64.9-66.6l35.6,37L453.4,664.8z"/>
	<polygon class="st1" points="453.4,679.1 563.8,644.9 648.8,707.4 660.7,769 	"/>
	<polygon class="st0" points="454.6,693.8 651.5,778.5 553,868.9 	"/>
	<polygon class="st1" points="245.5,672.7 267.4,848.2 410.3,672.1 	"/>
	<path class="st0" d="M96.2,763.8c2.2-0.5,135.5-86.8,135.5-86.8l24.2,183.5L238,883.6L96.2,763.8z"/>
	<polygon class="st1" points="94.9,780.9 79.7,895.5 187.7,860 	"/>
	<polygon class="st1" points="73.9,681.9 77.7,714 46.9,844 34.6,838.2 	"/>
	<polygon class="st0" points="37.7,852.1 11,875.7 12,934.9 43.8,893.1 	"/>
	<path class="st0" d="M79.8,906c6.4-2.7,117.9-37.1,117.9-37.1l29,22.5l-63.1,81L79.8,906z"/>
	<polygon class="st1" points="91.8,936.3 133.7,1008.3 155.6,981.2 	"/>
	<polygon class="st0" points="76,937.4 42.5,1079.9 128.2,1023.7 	"/>
	<polygon class="st1" points="36.8,1104.7 37.7,1091.2 122.9,1041 121.5,1058.7 152.1,1091.2 153.3,1106.4 	"/>
	<polygon class="st0" points="204.8,1106.1 317.8,1106.5 316.3,1087.8 280.2,1057.7 278.9,1044.4 204.8,1093.8 	"/>
	<path class="st1" d="M204.6,1080.3c1.6-1.5,75.8-51.6,75.8-51.6l18.9-77.3l-92.6,42.3L204.6,1080.3z"/>
	<polygon class="st0" points="205.7,978.6 286.8,942.4 233.6,908.2 205.8,941.7 	"/>
	<polygon class="st1" points="258.1,908.7 333.9,893.2 304.9,937.8 	"/>
	<path d="M245.4,895.5"/>
	<polygon class="st0" points="471.6,849.9 425.5,675.2 245.4,895.5 	"/>
	<path class="st1" d="M447.1,709.2l103.4,180.3l9.7,34.8c0,0-52.1,107.8-51.9,105.1c0.2-2.7-40.4-135-40.4-135l16.2-50.5
		L447.1,709.2z"/>
	<polygon class="st0" points="459.9,910.8 498.8,1038.1 421.4,1026.2 	"/>
	<path class="st1" d="M409.6,1106.4c-0.1-1-0.2-44.9-0.2-44.9l9.5-20.2l78.2,9.2l2.3,17.7l23.6,25.4l1.2,12.9L409.6,1106.4z"/>
	<polygon class="st1" points="578.9,1081 649.4,1028.6 568.5,903.9 	"/>
	<polygon class="st0" points="578.8,1106.3 578.8,1096 661.5,1038.5 661.5,1056.5 694.5,1090.2 693.9,1106.5 	"/>
	<polygon class="st0" points="660.7,1019.5 661.7,880.3 573.8,886 	"/>
	<polygon class="st1" points="566.3,874.5 662,786.8 660.4,868 	"/>
	<g>
		<polygon class="st1" points="944.5,669.5 990.3,709.2 1027.8,685 		"/>
		<polygon class="st0" points="932.8,654.4 995.3,624.5 1033.5,674 		"/>
		<polygon class="st1" points="1004.5,618.3 1044.3,668.5 1086.8,609.4 		"/>
		<polygon class="st0" points="1009.9,607.4 1084.8,598.2 1039.1,563.3 		"/>
		<polygon class="st1" points="1046.9,553.9 1098,522.8 1093.8,591.8 		"/>
		<polygon class="st0" points="1044,543.1 1053.1,458.3 1094.3,511.7 		"/>
		<polygon class="st1" points="1008.4,491.3 1041.1,467.6 1036.6,504.6 		"/>
		<polygon class="st0" points="994,487.3 990.5,435 1041.4,452.5 		"/>
	</g>
</g>
</svg>
